<svg version="1.1" xmlns="http://www.w3.org/2000/svg" viewBox="0 0 595.2700140524939 595.2700140524939" width="595.2700140524939" height="595.2700140524939"><!-- svg-source:excalidraw --><metadata></metadata><defs><style class="style-fonts">
      </style></defs><rect x="0" y="0" width="595.2700140524939" height="595.2700140524939" fill="#ffffff"></rect><g stroke-linecap="round" transform="translate(10 10) rotate(0 287.6350070262469 287.63500702624697)"><path d="M277.39 0.64 C297.54 -4.69, 320.6 2.1, 341.54 5.88 C362.47 9.66, 383.41 15.06, 402.99 23.33 C422.56 31.61, 441.92 42.66, 458.97 55.52 C476.03 68.38, 491.62 84.36, 505.31 100.5 C518.99 116.63, 531.07 133.47, 541.09 152.33 C551.1 171.19, 559.58 193, 565.38 213.66 C571.18 234.32, 575.18 254.94, 575.87 276.29 C576.56 297.64, 573.64 320.82, 569.5 341.76 C565.36 362.7, 559.34 382.62, 551.02 401.93 C542.7 421.24, 532.21 440.41, 519.58 457.6 C506.94 474.8, 491.59 490.89, 475.21 505.1 C458.84 519.31, 440.01 532.72, 421.34 542.86 C402.67 553, 383.7 560.66, 363.2 565.96 C342.69 571.27, 319.69 573.85, 298.29 574.69 C276.89 575.53, 255.85 574.94, 234.8 570.99 C213.74 567.04, 191.68 559.59, 171.96 550.99 C152.24 542.38, 133.65 531.89, 116.49 519.35 C99.33 506.81, 82.68 491.77, 69 475.72 C55.31 459.68, 44.17 442.02, 34.38 423.07 C24.59 404.11, 16.08 382.66, 10.28 361.99 C4.48 341.32, 0.48 320.2, -0.42 299.04 C-1.33 277.87, 0.96 255.98, 4.85 235.01 C8.75 214.04, 14.5 192.76, 22.96 173.21 C31.41 153.66, 42.76 134.98, 55.57 117.73 C68.38 100.49, 83.6 83.74, 99.83 69.75 C116.05 55.75, 134.09 43.73, 152.93 33.79 C171.77 23.84, 190.73 15.59, 212.87 10.08 C235.01 4.56, 272.2 1.41, 285.75 0.68 C299.29 -0.04, 294.31 1.09, 294.13 5.71 M302.63 1.24 C323.14 -2.33, 345.46 6.43, 365.77 12.16 C386.08 17.89, 405.65 25.64, 424.51 35.6 C443.38 45.56, 462.91 57.99, 478.95 71.9 C494.99 85.81, 508.58 101.6, 520.76 119.06 C532.94 136.52, 543.66 156.87, 552.04 176.67 C560.42 196.47, 567.05 216.92, 571.03 237.86 C575 258.8, 576.82 281.08, 575.87 302.31 C574.92 323.54, 571.39 344.39, 565.31 365.24 C559.22 386.09, 549.75 408.59, 539.35 427.4 C528.95 446.21, 517.07 462.64, 502.9 478.1 C488.73 493.57, 471.8 507.71, 454.34 520.19 C436.87 532.68, 417.8 544.66, 398.11 553.03 C378.43 561.4, 357.29 567, 336.25 570.44 C315.21 573.88, 292.96 574.86, 271.88 573.65 C250.79 572.43, 229.94 568.83, 209.73 563.15 C189.53 557.47, 169.26 549.85, 150.65 539.58 C132.03 529.31, 114.41 515.58, 98.04 501.53 C81.67 487.49, 65.28 472.61, 52.44 455.31 C39.6 438.01, 29.24 417.31, 21 397.72 C12.77 378.13, 6.61 358.49, 3.05 337.77 C-0.51 317.04, -1.72 294.66, -0.36 273.37 C1 252.08, 5.29 230.67, 11.22 210.04 C17.15 189.4, 24.97 168.45, 35.23 149.56 C45.49 130.68, 58.59 112.65, 72.79 96.71 C86.99 80.76, 103.1 66.35, 120.45 53.88 C137.8 41.4, 157.34 30.25, 176.89 21.86 C196.44 13.46, 216.84 6.9, 237.75 3.53 C258.67 0.16, 291.71 1.27, 302.4 1.65 C313.09 2.03, 302.23 1.23, 301.89 5.8" stroke="#1e1e1e" stroke-width="2" fill="none"></path></g><g stroke-linecap="round"><g transform="translate(320.8212046310857 256.2670278563178) rotate(209.1102951276495 -10.390473143572933 -2.1410478741154293)"><path d="M0 0 C-1 -0.79, -3.71 -4.8, -6.02 -4.73 C-8.33 -4.65, -11.4 0.13, -13.86 0.45 C-16.32 0.76, -19.63 -2.28, -20.78 -2.83 M0 0 C-1 -0.79, -3.71 -4.8, -6.02 -4.73 C-8.33 -4.65, -11.4 0.13, -13.86 0.45 C-16.32 0.76, -19.63 -2.28, -20.78 -2.83" stroke="#1e1e1e" stroke-width="2" fill="none"></path></g></g><mask></mask><g stroke-linecap="round"><g transform="translate(216.43762473698962 298.36637651842113) rotate(163.15443428961487 -0.7223630334491418 4.412959672668649)"><path d="M0 0 C0.3 -0.09, 1.15 -0.84, 1.78 -0.52 C2.41 -0.21, 3.44 0.65, 3.78 1.9 C4.11 3.15, 4.26 5.74, 3.78 6.99 C3.31 8.23, 2.43 9.48, 0.93 9.35 C-0.58 9.22, -4.24 7.51, -5.23 6.23 C-6.21 4.96, -5.85 2.73, -4.98 1.69 C-4.11 0.65, -0.83 0.28, 0 0 M0 0 C0.3 -0.09, 1.15 -0.84, 1.78 -0.52 C2.41 -0.21, 3.44 0.65, 3.78 1.9 C4.11 3.15, 4.26 5.74, 3.78 6.99 C3.31 8.23, 2.43 9.48, 0.93 9.35 C-0.58 9.22, -4.24 7.51, -5.23 6.23 C-6.21 4.96, -5.85 2.73, -4.98 1.69 C-4.11 0.65, -0.83 0.28, 0 0" stroke="#1e1e1e" stroke-width="2" fill="none"></path></g></g><mask></mask><g stroke-linecap="round"><g transform="translate(328.84529616127384 267.0864093151447) rotate(105.42256845026542 -8.5788318637791 -1.1091564778973861)"><path d="M0 0 C-0.95 -0.53, -3.66 -3.37, -5.68 -3.21 C-7.7 -3.04, -10.22 0.78, -12.13 0.99 C-14.05 1.2, -16.32 -1.48, -17.16 -1.97 M0 0 C-0.95 -0.53, -3.66 -3.37, -5.68 -3.21 C-7.7 -3.04, -10.22 0.78, -12.13 0.99 C-14.05 1.2, -16.32 -1.48, -17.16 -1.97" stroke="#1e1e1e" stroke-width="2" fill="none"></path></g></g><mask></mask><g stroke-linecap="round"><g transform="translate(231.23474405827892 171.01518190768138) rotate(0 12.992234966426736 -1.9577760127586998)"><path d="M0 0 C0.46 -0.11, 1.56 0.08, 2.76 -0.69 C3.96 -1.46, 5.43 -4.89, 7.2 -4.62 C8.96 -4.34, 11.35 0.99, 13.34 0.95 C15.32 0.91, 17.54 -4.34, 19.09 -4.87 C20.64 -5.4, 21.49 -2.8, 22.63 -2.22 C23.78 -1.65, 25.43 -1.54, 25.98 -1.4 M0 0 C0.46 -0.11, 1.56 0.08, 2.76 -0.69 C3.96 -1.46, 5.43 -4.89, 7.2 -4.62 C8.96 -4.34, 11.35 0.99, 13.34 0.95 C15.32 0.91, 17.54 -4.34, 19.09 -4.87 C20.64 -5.4, 21.49 -2.8, 22.63 -2.22 C23.78 -1.65, 25.43 -1.54, 25.98 -1.4" stroke="#1e1e1e" stroke-width="2" fill="none"></path></g></g><mask></mask><g stroke-linecap="round"><g transform="translate(348.9197465455138 203.00462811292084) rotate(0 2.2396464673682317 -6.13257959626128)"><path d="M0 0 C-0.56 -0.53, -2.83 -1.85, -3.37 -3.15 C-3.9 -4.46, -3.73 -6.42, -3.2 -7.83 C-2.67 -9.24, -1.49 -10.88, -0.19 -11.62 C1.11 -12.36, 3.27 -12.7, 4.61 -12.27 C5.95 -11.83, 7.43 -10.28, 7.85 -9.04 C8.26 -7.8, 7.8 -6.03, 7.09 -4.82 C6.38 -3.62, 4.86 -2.1, 3.59 -1.8 C2.31 -1.5, 0.12 -2.8, -0.58 -3 M0 0 C-0.56 -0.53, -2.83 -1.85, -3.37 -3.15 C-3.9 -4.46, -3.73 -6.42, -3.2 -7.83 C-2.67 -9.24, -1.49 -10.88, -0.19 -11.62 C1.11 -12.36, 3.27 -12.7, 4.61 -12.27 C5.95 -11.83, 7.43 -10.28, 7.85 -9.04 C8.26 -7.8, 7.8 -6.03, 7.09 -4.82 C6.38 -3.62, 4.86 -2.1, 3.59 -1.8 C2.31 -1.5, 0.12 -2.8, -0.58 -3" stroke="#1e1e1e" stroke-width="2" fill="none"></path></g></g><mask></mask><g stroke-linecap="round"><g transform="translate(285.1057388899492 348.95633054790983) rotate(0 10.218849280239453 -5.784709968897857)"><path d="M0 0 C0.2 -0.33, 0.89 -1.21, 1.17 -2 C1.45 -2.8, 1.15 -4.25, 1.68 -4.79 C2.22 -5.32, 3.38 -5.54, 4.37 -5.21 C5.36 -4.88, 6.36 -3.32, 7.62 -2.8 C8.89 -2.29, 10.98 -1.68, 11.96 -2.11 C12.94 -2.53, 13.37 -4.27, 13.49 -5.36 C13.61 -6.44, 12.59 -7.6, 12.67 -8.63 C12.75 -9.67, 13.26 -11.26, 13.97 -11.57 C14.69 -11.88, 15.89 -10.7, 16.97 -10.51 C18.05 -10.31, 19.86 -10.41, 20.44 -10.39 M0 0 C0.2 -0.33, 0.89 -1.21, 1.17 -2 C1.45 -2.8, 1.15 -4.25, 1.68 -4.79 C2.22 -5.32, 3.38 -5.54, 4.37 -5.21 C5.36 -4.88, 6.36 -3.32, 7.62 -2.8 C8.89 -2.29, 10.98 -1.68, 11.96 -2.11 C12.94 -2.53, 13.37 -4.27, 13.49 -5.36 C13.61 -6.44, 12.59 -7.6, 12.67 -8.63 C12.75 -9.67, 13.26 -11.26, 13.97 -11.57 C14.69 -11.88, 15.89 -10.7, 16.97 -10.51 C18.05 -10.31, 19.86 -10.41, 20.44 -10.39" stroke="#1e1e1e" stroke-width="2" fill="none"></path></g></g><mask></mask><g stroke-linecap="round"><g transform="translate(219.85549008273347 397.922096459489) rotate(0 8.918793545742403 0.20555149877208123)"><path d="M0 0 C0.66 0.53, 2.49 3.7, 3.96 3.17 C5.43 2.64, 7.1 -3.26, 8.81 -3.19 C10.53 -3.12, 12.76 3.14, 14.26 3.6 C15.77 4.06, 17.24 0.26, 17.84 -0.4 M0 0 C0.66 0.53, 2.49 3.7, 3.96 3.17 C5.43 2.64, 7.1 -3.26, 8.81 -3.19 C10.53 -3.12, 12.76 3.14, 14.26 3.6 C15.77 4.06, 17.24 0.26, 17.84 -0.4" stroke="#1e1e1e" stroke-width="2" fill="none"></path></g></g><mask></mask><g stroke-linecap="round"><g transform="translate(468.86278667092984 205.10464537092298) rotate(0 -16.38843299424434 21.654093286521174)"><path d="M0 0 C-0.76 1.23, -2.56 5.28, -4.56 7.38 C-6.56 9.48, -9.65 9.27, -11.98 12.59 C-14.31 15.92, -17.35 24.14, -18.54 27.33 C-19.72 30.52, -17.63 29.68, -19.1 31.73 C-20.58 33.78, -25.12 37.69, -27.4 39.61 C-29.67 41.54, -31.88 42.69, -32.78 43.31 M0 0 C-0.76 1.23, -2.56 5.28, -4.56 7.38 C-6.56 9.48, -9.65 9.27, -11.98 12.59 C-14.31 15.92, -17.35 24.14, -18.54 27.33 C-19.72 30.52, -17.63 29.68, -19.1 31.73 C-20.58 33.78, -25.12 37.69, -27.4 39.61 C-29.67 41.54, -31.88 42.69, -32.78 43.31" stroke="#343a40" stroke-width="0.5" fill="none"></path></g></g><mask></mask><g stroke-linecap="round" transform="translate(49.56541502445543 31.946751889680513) rotate(0 262.5191592524923 262.5191592524922)"><path d="M525.04 262.52 C525.04 267.8, 524.88 273.1, 524.56 278.37 C524.24 283.64, 523.76 288.92, 523.12 294.16 C522.49 299.41, 521.69 304.64, 520.74 309.84 C519.79 315.04, 518.67 320.21, 517.41 325.34 C516.15 330.47, 514.72 335.58, 513.15 340.62 C511.58 345.66, 509.85 350.67, 507.98 355.61 C506.11 360.55, 504.08 365.44, 501.91 370.26 C499.74 375.08, 497.42 379.84, 494.97 384.52 C492.51 389.2, 489.91 393.81, 487.18 398.33 C484.44 402.85, 481.57 407.3, 478.57 411.65 C475.57 416, 472.43 420.26, 469.17 424.42 C465.91 428.58, 462.52 432.65, 459.02 436.6 C455.51 440.56, 451.88 444.41, 448.15 448.15 C444.41 451.88, 440.56 455.51, 436.6 459.02 C432.65 462.52, 428.58 465.91, 424.42 469.17 C420.26 472.43, 416 475.57, 411.65 478.57 C407.3 481.57, 402.85 484.44, 398.33 487.18 C393.81 489.91, 389.2 492.51, 384.52 494.97 C379.84 497.42, 375.08 499.74, 370.26 501.91 C365.44 504.08, 360.55 506.11, 355.61 507.98 C350.67 509.85, 345.66 511.58, 340.62 513.15 C335.58 514.72, 330.47 516.15, 325.34 517.41 C320.21 518.67, 315.04 519.79, 309.84 520.74 C304.64 521.69, 299.41 522.49, 294.16 523.12 C288.92 523.76, 283.64 524.24, 278.37 524.56 C273.1 524.88, 267.8 525.04, 262.52 525.04 C257.24 525.04, 251.94 524.88, 246.67 524.56 C241.39 524.24, 236.12 523.76, 230.88 523.12 C225.63 522.49, 220.4 521.69, 215.2 520.74 C210 519.79, 204.82 518.67, 199.69 517.41 C194.56 516.15, 189.46 514.72, 184.42 513.15 C179.37 511.58, 174.37 509.85, 169.43 507.98 C164.49 506.11, 159.6 504.08, 154.78 501.91 C149.96 499.74, 145.2 497.42, 140.52 494.97 C135.84 492.51, 131.23 489.91, 126.71 487.18 C122.19 484.44, 117.74 481.57, 113.39 478.57 C109.04 475.57, 104.78 472.43, 100.62 469.17 C96.46 465.91, 92.39 462.52, 88.44 459.02 C84.48 455.51, 80.63 451.88, 76.89 448.15 C73.15 444.41, 69.52 440.56, 66.02 436.6 C62.52 432.65, 59.13 428.58, 55.87 424.42 C52.61 420.26, 49.47 416, 46.47 411.65 C43.47 407.3, 40.59 402.85, 37.86 398.33 C35.13 393.81, 32.53 389.2, 30.07 384.52 C27.61 379.84, 25.3 375.08, 23.13 370.26 C20.96 365.44, 18.93 360.55, 17.06 355.61 C15.19 350.67, 13.46 345.66, 11.89 340.62 C10.31 335.58, 8.89 330.47, 7.63 325.34 C6.36 320.21, 5.25 315.04, 4.3 309.84 C3.35 304.64, 2.55 299.41, 1.91 294.16 C1.28 288.92, 0.8 283.64, 0.48 278.37 C0.16 273.1, 0 267.8, 0 262.52 C0 257.24, 0.16 251.94, 0.48 246.67 C0.8 241.39, 1.28 236.12, 1.91 230.88 C2.55 225.63, 3.35 220.4, 4.3 215.2 C5.25 210, 6.36 204.82, 7.63 199.69 C8.89 194.56, 10.31 189.46, 11.89 184.42 C13.46 179.37, 15.19 174.37, 17.06 169.43 C18.93 164.49, 20.96 159.6, 23.13 154.78 C25.3 149.96, 27.61 145.2, 30.07 140.52 C32.53 135.84, 35.13 131.23, 37.86 126.71 C40.59 122.19, 43.47 117.74, 46.47 113.39 C49.47 109.04, 52.61 104.78, 55.87 100.62 C59.13 96.46, 62.52 92.39, 66.02 88.44 C69.52 84.48, 73.15 80.63, 76.89 76.89 C80.63 73.15, 84.48 69.52, 88.44 66.02 C92.39 62.52, 96.46 59.13, 100.62 55.87 C104.78 52.61, 109.04 49.47, 113.39 46.47 C117.74 43.47, 122.19 40.59, 126.71 37.86 C131.23 35.13, 135.84 32.53, 140.52 30.07 C145.2 27.61, 149.96 25.3, 154.78 23.13 C159.6 20.96, 164.49 18.93, 169.43 17.06 C174.37 15.19, 179.37 13.46, 184.42 11.89 C189.46 10.31, 194.56 8.89, 199.69 7.63 C204.82 6.36, 210 5.25, 215.2 4.3 C220.4 3.35, 225.63 2.55, 230.88 1.91 C236.12 1.28, 241.39 0.8, 246.67 0.48 C251.94 0.16, 257.24 0, 262.52 0 C267.8 0, 273.1 0.16, 278.37 0.48 C283.64 0.8, 288.92 1.28, 294.16 1.91 C299.41 2.55, 304.64 3.35, 309.84 4.3 C315.04 5.25, 320.21 6.36, 325.34 7.63 C330.47 8.89, 335.58 10.31, 340.62 11.89 C345.66 13.46, 350.67 15.19, 355.61 17.06 C360.55 18.93, 365.44 20.96, 370.26 23.13 C375.08 25.3, 379.84 27.61, 384.52 30.07 C389.2 32.53, 393.81 35.13, 398.33 37.86 C402.85 40.59, 407.3 43.47, 411.65 46.47 C416 49.47, 420.26 52.61, 424.42 55.87 C428.58 59.13, 432.65 62.52, 436.6 66.02 C440.56 69.52, 444.41 73.15, 448.15 76.89 C451.88 80.63, 455.51 84.48, 459.02 88.44 C462.52 92.39, 465.91 96.46, 469.17 100.62 C472.43 104.78, 475.57 109.04, 478.57 113.39 C481.57 117.74, 484.44 122.19, 487.18 126.71 C489.91 131.23, 492.51 135.84, 494.97 140.52 C497.42 145.2, 499.74 149.96, 501.91 154.78 C504.08 159.6, 506.11 164.49, 507.98 169.43 C509.85 174.37, 511.58 179.37, 513.15 184.42 C514.72 189.46, 516.15 194.56, 517.41 199.69 C518.67 204.82, 519.79 210, 520.74 215.2 C521.69 220.4, 522.49 225.63, 523.12 230.88 C523.76 236.12, 524.24 241.39, 524.56 246.67 C524.88 251.94, 524.96 259.88, 525.04 262.52 C525.12 265.16, 525.12 259.88, 525.04 262.52" stroke="#1971c2" stroke-width="1" fill="none"></path></g><g stroke-linecap="round" transform="translate(310.0268462997492 292.40818316497405) rotate(0 2.0577279771987946 2.0577279771987946)"><path d="M4.12 2.06 C4.12 2.18, 4.1 2.3, 4.08 2.42 C4.06 2.53, 4.03 2.65, 3.99 2.76 C3.95 2.87, 3.9 2.98, 3.84 3.09 C3.78 3.19, 3.71 3.29, 3.63 3.38 C3.56 3.47, 3.47 3.56, 3.38 3.63 C3.29 3.71, 3.19 3.78, 3.09 3.84 C2.98 3.9, 2.87 3.95, 2.76 3.99 C2.65 4.03, 2.53 4.06, 2.42 4.08 C2.3 4.1, 2.18 4.12, 2.06 4.12 C1.94 4.12, 1.82 4.1, 1.7 4.08 C1.58 4.06, 1.47 4.03, 1.35 3.99 C1.24 3.95, 1.13 3.9, 1.03 3.84 C0.93 3.78, 0.83 3.71, 0.74 3.63 C0.64 3.56, 0.56 3.47, 0.48 3.38 C0.4 3.29, 0.34 3.19, 0.28 3.09 C0.22 2.98, 0.16 2.87, 0.12 2.76 C0.08 2.65, 0.05 2.53, 0.03 2.42 C0.01 2.3, 0 2.18, 0 2.06 C0 1.94, 0.01 1.82, 0.03 1.7 C0.05 1.58, 0.08 1.47, 0.12 1.35 C0.16 1.24, 0.22 1.13, 0.28 1.03 C0.34 0.93, 0.4 0.83, 0.48 0.74 C0.56 0.64, 0.64 0.56, 0.74 0.48 C0.83 0.4, 0.93 0.34, 1.03 0.28 C1.13 0.22, 1.24 0.16, 1.35 0.12 C1.47 0.08, 1.58 0.05, 1.7 0.03 C1.82 0.01, 1.94 0, 2.06 0 C2.18 0, 2.3 0.01, 2.42 0.03 C2.53 0.05, 2.65 0.08, 2.76 0.12 C2.87 0.16, 2.98 0.22, 3.09 0.28 C3.19 0.34, 3.29 0.4, 3.38 0.48 C3.47 0.56, 3.56 0.64, 3.63 0.74 C3.71 0.83, 3.78 0.93, 3.84 1.03 C3.9 1.13, 3.95 1.24, 3.99 1.35 C4.03 1.47, 4.06 1.58, 4.08 1.7 C4.1 1.82, 4.11 2, 4.12 2.06 C4.12 2.12, 4.12 2, 4.12 2.06" stroke="none" stroke-width="0" fill="#ffc9c9"></path><path d="M4.12 2.06 C4.12 2.18, 4.1 2.3, 4.08 2.42 C4.06 2.53, 4.03 2.65, 3.99 2.76 C3.95 2.87, 3.9 2.98, 3.84 3.09 C3.78 3.19, 3.71 3.29, 3.63 3.38 C3.56 3.47, 3.47 3.56, 3.38 3.63 C3.29 3.71, 3.19 3.78, 3.09 3.84 C2.98 3.9, 2.87 3.95, 2.76 3.99 C2.65 4.03, 2.53 4.06, 2.42 4.08 C2.3 4.1, 2.18 4.12, 2.06 4.12 C1.94 4.12, 1.82 4.1, 1.7 4.08 C1.58 4.06, 1.47 4.03, 1.35 3.99 C1.24 3.95, 1.13 3.9, 1.03 3.84 C0.93 3.78, 0.83 3.71, 0.74 3.63 C0.64 3.56, 0.56 3.47, 0.48 3.38 C0.4 3.29, 0.34 3.19, 0.28 3.09 C0.22 2.98, 0.16 2.87, 0.12 2.76 C0.08 2.65, 0.05 2.53, 0.03 2.42 C0.01 2.3, 0 2.18, 0 2.06 C0 1.94, 0.01 1.82, 0.03 1.7 C0.05 1.58, 0.08 1.47, 0.12 1.35 C0.16 1.24, 0.22 1.13, 0.28 1.03 C0.34 0.93, 0.4 0.83, 0.48 0.74 C0.56 0.64, 0.64 0.56, 0.74 0.48 C0.83 0.4, 0.93 0.34, 1.03 0.28 C1.13 0.22, 1.24 0.16, 1.35 0.12 C1.47 0.08, 1.58 0.05, 1.7 0.03 C1.82 0.01, 1.94 0, 2.06 0 C2.18 0, 2.3 0.01, 2.42 0.03 C2.53 0.05, 2.65 0.08, 2.76 0.12 C2.87 0.16, 2.98 0.22, 3.09 0.28 C3.19 0.34, 3.29 0.4, 3.38 0.48 C3.47 0.56, 3.56 0.64, 3.63 0.74 C3.71 0.83, 3.78 0.93, 3.84 1.03 C3.9 1.13, 3.95 1.24, 3.99 1.35 C4.03 1.47, 4.06 1.58, 4.08 1.7 C4.1 1.82, 4.11 2, 4.12 2.06 C4.12 2.12, 4.12 2, 4.12 2.06" stroke="#e03131" stroke-width="1" fill="none"></path></g></svg>
